# 3ds Max Wavefront OBJ Exporter v0.97b - (c)2007 guruware
# File Created: 31.01.2024 12:32:59

mtllib Match.mtl

#
# object Match
#

v  -0.2249 -0.8881 0.3458
v  -0.1670 -0.8772 0.4018
v  0.1760 0.6673 -0.3795
v  0.2426 0.6775 -0.3199
v  -0.2838 -0.8504 0.3940
v  -0.2206 -0.8385 0.4551
v  0.1191 0.7059 -0.3282
v  0.1859 0.7185 -0.2635
v  -0.2300 -0.8869 0.3455
v  -0.1668 -0.8751 0.4066
v  0.1814 0.6660 -0.3791
v  0.2428 0.6798 -0.3148
v  -0.2836 -0.8482 0.3988
v  -0.2257 -0.8373 0.4548
v  0.1193 0.7082 -0.3231
v  0.1805 0.7197 -0.2639
v  0.2120 0.6718 -0.3495
v  -0.1959 -0.8827 0.3738
v  -0.2547 -0.8428 0.4268
v  0.1499 0.7140 -0.2935
v  -0.1937 -0.8568 0.4309
v  -0.2569 -0.8687 0.3697
v  0.2144 0.6992 -0.2891
v  0.1475 0.6866 -0.3538
v  0.2456 0.7743 -0.3111
v  0.2618 0.7571 -0.3352
v  0.2606 0.7431 -0.3659
v  0.2425 0.7368 -0.3936
v  0.2139 0.7344 -0.4112
v  0.1810 0.7419 -0.4134
v  0.1543 0.7571 -0.3995
v  0.1374 0.7715 -0.3741
v  0.1386 0.7855 -0.3433
v  0.1574 0.7946 -0.3169
v  0.1853 0.7943 -0.2981
v  0.2182 0.7867 -0.2959
v  0.2577 0.8093 -0.3241
v  0.2739 0.7927 -0.3509
v  0.2727 0.7780 -0.3831
v  0.2544 0.7693 -0.4122
v  0.2239 0.7689 -0.4303
v  0.1894 0.7768 -0.4326
v  0.1602 0.7910 -0.4185
v  0.1440 0.8077 -0.3917
v  0.1453 0.8223 -0.3594
v  0.1636 0.8310 -0.3303
v  0.1940 0.8315 -0.3122
v  0.2285 0.8235 -0.3099
v  0.2592 0.8353 -0.3420
v  0.2736 0.8206 -0.3657
v  0.2725 0.8076 -0.3943
v  0.2563 0.7999 -0.4201
v  0.2293 0.7995 -0.4362
v  0.1987 0.8065 -0.4382
v  0.1728 0.8191 -0.4257
v  0.1585 0.8339 -0.4019
v  0.1596 0.8468 -0.3733
v  0.1758 0.8546 -0.3475
v  0.2028 0.8550 -0.3315
v  0.2333 0.8479 -0.3295
v  0.2490 0.8567 -0.3911
v  0.2485 0.8511 -0.4033
v  0.2060 0.8560 -0.4166
v  0.2188 0.8713 -0.3765
v  0.2318 0.8683 -0.3756
v  0.2253 0.8627 -0.4003
v  0.2160 0.8605 -0.4090
v  0.2344 0.8640 -0.3912
v  0.2429 0.8629 -0.3810
v  0.2416 0.8478 -0.4142
v  0.2301 0.8477 -0.4211
v  0.2171 0.8507 -0.4219
v  0.1999 0.8623 -0.4065
v  0.2004 0.8678 -0.3943
v  0.2073 0.8711 -0.3833
v  0.2531 0.8546 -0.3634
v  0.2635 0.8439 -0.3806
v  0.2627 0.8344 -0.4014
v  0.2509 0.8288 -0.4202
v  0.2313 0.8285 -0.4318
v  0.2091 0.8336 -0.4333
v  0.1902 0.8428 -0.4242
v  0.1798 0.8535 -0.4069
v  0.1806 0.8629 -0.3862
v  0.1924 0.8686 -0.3674
v  0.2120 0.8689 -0.3557
v  0.2342 0.8637 -0.3543
v  0.2467 0.7134 -0.3178
v  0.2276 0.7253 -0.2942
v  0.2458 0.7017 -0.3435
v  0.2248 0.6924 -0.3667
v  0.1999 0.6931 -0.3878
v  0.1725 0.6994 -0.3897
v  0.1473 0.7102 -0.3719
v  0.1298 0.7284 -0.3512
v  0.1308 0.7401 -0.3255
v  0.1501 0.7431 -0.2994
v  0.1766 0.7487 -0.2812
v  0.2040 0.7424 -0.2793
v  0.1760 0.6673 -0.3795
v  0.2426 0.6775 -0.3199
v  0.1191 0.7059 -0.3282
v  0.1859 0.7185 -0.2635
v  0.1814 0.6660 -0.3791
v  0.2428 0.6798 -0.3148
v  0.1193 0.7082 -0.3231
v  0.1805 0.7197 -0.2639
v  0.2120 0.6718 -0.3495
v  0.1499 0.7140 -0.2935
v  0.2144 0.6992 -0.2891
v  0.1475 0.6866 -0.3538
v  -0.2522 -0.8445 0.4245
v  -0.2253 -0.8627 0.4003
v  -0.1984 -0.8810 0.3761
v  -0.2241 -0.8867 0.3413
v  -0.1629 -0.8752 0.4006
v  -0.2250 -0.8330 0.4566
v  -0.2862 -0.8445 0.3973
v  -0.2295 -0.8855 0.3410
v  -0.1627 -0.8729 0.4057
v  -0.2196 -0.8343 0.4570
v  -0.2864 -0.8468 0.3923
v  -0.1935 -0.8810 0.3710
v  -0.2556 -0.8388 0.4270
v  -0.1911 -0.8536 0.4313
v  -0.2580 -0.8661 0.3666
# 126 vertices

vn 0.1350 -0.9531 -0.2709
vn 0.2189 -0.7522 -0.6215
vn 0.5503 -0.7160 -0.4296
vn 0.3761 -0.9016 -0.2136
vn -0.7679 -0.3397 0.5431
vn -0.6627 -0.1959 0.7228
vn -0.7020 0.1348 0.6993
vn -0.9157 0.0186 0.4014
vn 0.4679 -0.6249 0.6250
vn 0.7738 -0.3706 0.5138
vn 0.5964 -0.1646 0.7856
vn 0.4139 -0.4447 0.7943
vn -0.4042 -0.2960 -0.8655
vn -0.4448 -0.5995 -0.6654
vn -0.7483 -0.4173 -0.5156
vn -0.7122 -0.1338 -0.6892
vn 0.1350 -0.9531 -0.2709
vn -0.5011 -0.8069 -0.3128
vn -0.4448 -0.5995 -0.6654
vn 0.2189 -0.7522 -0.6215
vn 0.8852 -0.3650 -0.2885
vn 0.9117 -0.0488 0.4079
vn 0.7738 -0.3706 0.5138
vn 0.7502 -0.6524 -0.1073
vn -0.4573 -0.2813 0.8436
vn 0.1785 -0.4282 0.8859
vn 0.2792 -0.0345 0.9596
vn -0.3844 0.1185 0.9155
vn -0.8852 0.3650 0.2885
vn -0.9117 0.0488 -0.4079
vn -0.9393 -0.2634 -0.2196
vn -0.9157 0.0186 0.4014
vn 0.6631 -0.4505 -0.5978
vn 0.8852 -0.3650 -0.2885
vn 0.7502 -0.6524 -0.1073
vn 0.5503 -0.7160 -0.4296
vn -0.6627 -0.1959 0.7228
vn -0.4573 -0.2813 0.8436
vn -0.3844 0.1185 0.9155
vn -0.7020 0.1348 0.6993
vn 0.7122 0.1338 0.6892
vn 0.4042 0.2960 0.8655
vn 0.2792 -0.0345 0.9596
vn 0.5964 -0.1646 0.7856
vn -0.7009 -0.6541 -0.2845
vn -0.7905 -0.6103 -0.0519
vn -0.9393 -0.2634 -0.2196
vn -0.7483 -0.4173 -0.5156
vn 0.6890 0.0279 0.7242
vn 0.9168 -0.1724 0.3602
vn 0.9628 -0.0351 0.2681
vn 0.7303 0.1951 0.6547
vn 0.9168 -0.1724 0.3602
vn 0.9013 -0.4044 -0.1554
vn 0.9467 -0.2459 -0.2079
vn 0.9628 -0.0351 0.2681
vn 0.9013 -0.4044 -0.1554
vn 0.6246 -0.5490 -0.5554
vn 0.6745 -0.3861 -0.6293
vn 0.9467 -0.2459 -0.2079
vn 0.6246 -0.5490 -0.5554
vn 0.2270 -0.5366 -0.8128
vn 0.2410 -0.3844 -0.8911
vn 0.6745 -0.3861 -0.6293
vn 0.2270 -0.5366 -0.8128
vn -0.3225 -0.4088 -0.8538
vn -0.2643 -0.2636 -0.9277
vn 0.2410 -0.3844 -0.8911
vn -0.3225 -0.4088 -0.8538
vn -0.7412 -0.2276 -0.6316
vn -0.6969 -0.0673 -0.7140
vn -0.2643 -0.2636 -0.9277
vn -0.7412 -0.2276 -0.6316
vn -0.9575 0.0164 -0.2878
vn -0.9253 0.1784 -0.3346
vn -0.6969 -0.0673 -0.7140
vn -0.9575 0.0164 -0.2878
vn -0.9407 0.2534 0.2255
vn -0.9069 0.3983 0.1372
vn -0.9253 0.1784 -0.3346
vn -0.9407 0.2534 0.2255
vn -0.6768 0.3493 0.6481
vn -0.6411 0.5139 0.5700
vn -0.9069 0.3983 0.1372
vn -0.6768 0.3493 0.6481
vn -0.2677 0.3805 0.8852
vn -0.2036 0.5278 0.8246
vn -0.6411 0.5139 0.5700
vn -0.2677 0.3805 0.8852
vn 0.2831 0.2578 0.9238
vn 0.3041 0.4161 0.8570
vn -0.2036 0.5278 0.8246
vn 0.2831 0.2578 0.9238
vn 0.6890 0.0279 0.7242
vn 0.7303 0.1951 0.6547
vn 0.3041 0.4161 0.8570
vn 0.7303 0.1951 0.6547
vn 0.9628 -0.0351 0.2681
vn 0.9612 0.2533 0.1089
vn 0.7449 0.4762 0.4674
vn 0.9628 -0.0351 0.2681
vn 0.9467 -0.2459 -0.2079
vn 0.9448 0.0574 -0.3227
vn 0.9612 0.2533 0.1089
vn 0.9467 -0.2459 -0.2079
vn 0.6745 -0.3861 -0.6293
vn 0.6999 -0.0592 -0.7118
vn 0.9448 0.0574 -0.3227
vn 0.6745 -0.3861 -0.6293
vn 0.2410 -0.3844 -0.8911
vn 0.2923 -0.0652 -0.9541
vn 0.6999 -0.0592 -0.7118
vn 0.2410 -0.3844 -0.8911
vn -0.2643 -0.2636 -0.9277
vn -0.1690 0.0410 -0.9848
vn 0.2923 -0.0652 -0.9541
vn -0.2643 -0.2636 -0.9277
vn -0.6969 -0.0673 -0.7140
vn -0.5602 0.2310 -0.7955
vn -0.1690 0.0410 -0.9848
vn -0.6969 -0.0673 -0.7140
vn -0.9253 0.1784 -0.3346
vn -0.7765 0.4538 -0.4371
vn -0.5602 0.2310 -0.7955
vn -0.9253 0.1784 -0.3346
vn -0.9069 0.3983 0.1372
vn -0.7601 0.6498 -0.0055
vn -0.7765 0.4538 -0.4371
vn -0.9069 0.3983 0.1372
vn -0.6411 0.5139 0.5700
vn -0.5152 0.7664 0.3836
vn -0.7601 0.6498 -0.0055
vn -0.6411 0.5139 0.5700
vn -0.2036 0.5278 0.8246
vn -0.1076 0.7724 0.6260
vn -0.5152 0.7664 0.3836
vn -0.2036 0.5278 0.8246
vn 0.3041 0.4161 0.8570
vn 0.3536 0.6661 0.6566
vn -0.1076 0.7724 0.6260
vn 0.3041 0.4161 0.8570
vn 0.7303 0.1951 0.6547
vn 0.7449 0.4762 0.4674
vn 0.3536 0.6661 0.6566
vn 0.7449 0.4762 0.4674
vn 0.9612 0.2533 0.1089
vn 0.8424 0.5343 -0.0701
vn 0.6725 0.7093 0.2114
vn 0.9612 0.2533 0.1089
vn 0.9448 0.0574 -0.3227
vn 0.8294 0.3805 -0.4090
vn 0.8424 0.5343 -0.0701
vn 0.9448 0.0574 -0.3227
vn 0.6999 -0.0592 -0.7118
vn 0.6372 0.2889 -0.7145
vn 0.8294 0.3805 -0.4090
vn 0.6999 -0.0592 -0.7118
vn 0.2923 -0.0652 -0.9541
vn 0.3171 0.2842 -0.9048
vn 0.6372 0.2889 -0.7145
vn 0.2923 -0.0652 -0.9541
vn -0.1690 0.0410 -0.9848
vn -0.0451 0.3676 -0.9289
vn 0.3171 0.2842 -0.9048
vn -0.1690 0.0410 -0.9848
vn -0.5602 0.2310 -0.7955
vn -0.3523 0.5168 -0.7803
vn -0.0451 0.3676 -0.9289
vn -0.5602 0.2310 -0.7955
vn -0.7765 0.4538 -0.4371
vn -0.5222 0.6918 -0.4988
vn -0.3523 0.5168 -0.7803
vn -0.7765 0.4538 -0.4371
vn -0.7601 0.6498 -0.0055
vn -0.5092 0.8456 -0.1599
vn -0.5222 0.6918 -0.4988
vn -0.7601 0.6498 -0.0055
vn -0.5152 0.7664 0.3836
vn -0.3170 0.9372 0.1456
vn -0.5092 0.8456 -0.1599
vn -0.5152 0.7664 0.3836
vn -0.1076 0.7724 0.6260
vn 0.0031 0.9419 0.3359
vn -0.3170 0.9372 0.1456
vn -0.1076 0.7724 0.6260
vn 0.3536 0.6661 0.6566
vn 0.3653 0.8585 0.3600
vn 0.0031 0.9419 0.3359
vn 0.3536 0.6661 0.6566
vn 0.7449 0.4762 0.4674
vn 0.6725 0.7093 0.2114
vn 0.3653 0.8585 0.3600
vn -0.1537 0.9401 -0.3043
vn -0.0454 0.9884 -0.1449
vn 0.2305 0.8827 -0.4096
vn 0.1441 0.8605 -0.4887
vn 0.5774 0.6823 -0.4485
vn 0.4702 0.6381 -0.6098
vn 0.2305 0.8827 -0.4096
vn 0.3136 0.8923 -0.3247
vn 0.2305 0.8827 -0.4096
vn 0.4702 0.6381 -0.6098
vn 0.3019 0.6305 -0.7150
vn 0.1441 0.8605 -0.4887
vn 0.2305 0.8827 -0.4096
vn -0.0454 0.9884 -0.1449
vn 0.1217 0.9918 -0.0378
vn 0.3136 0.8923 -0.3247
vn 0.3136 0.8923 -0.3247
vn 0.1217 0.9918 -0.0378
vn 0.3233 0.9463 -0.0022
vn 0.5114 0.8558 -0.0777
vn 0.5114 0.8558 -0.0777
vn 0.6027 0.7565 -0.2541
vn 0.5774 0.6823 -0.4485
vn 0.3136 0.8923 -0.3247
vn 0.0966 0.6614 -0.7438
vn -0.0942 0.7420 -0.6637
vn 0.1441 0.8605 -0.4887
vn 0.3019 0.6305 -0.7150
vn -0.1537 0.9401 -0.3043
vn 0.1441 0.8605 -0.4887
vn -0.0942 0.7420 -0.6637
vn -0.1828 0.8512 -0.4919
vn 0.8424 0.5343 -0.0701
vn 0.6027 0.7565 -0.2541
vn 0.5114 0.8558 -0.0777
vn 0.6725 0.7093 0.2114
vn 0.8294 0.3805 -0.4090
vn 0.5774 0.6823 -0.4485
vn 0.6027 0.7565 -0.2541
vn 0.8424 0.5343 -0.0701
vn 0.6372 0.2889 -0.7145
vn 0.4702 0.6381 -0.6098
vn 0.5774 0.6823 -0.4485
vn 0.8294 0.3805 -0.4090
vn 0.3171 0.2842 -0.9048
vn 0.3019 0.6305 -0.7150
vn 0.4702 0.6381 -0.6098
vn 0.6372 0.2889 -0.7145
vn -0.0451 0.3676 -0.9289
vn 0.0966 0.6614 -0.7438
vn 0.3019 0.6305 -0.7150
vn 0.3171 0.2842 -0.9048
vn -0.3523 0.5168 -0.7803
vn -0.0942 0.7420 -0.6637
vn 0.0966 0.6614 -0.7438
vn -0.0451 0.3676 -0.9289
vn -0.5222 0.6918 -0.4988
vn -0.1828 0.8512 -0.4919
vn -0.0942 0.7420 -0.6637
vn -0.3523 0.5168 -0.7803
vn -0.5092 0.8456 -0.1599
vn -0.1537 0.9401 -0.3043
vn -0.1828 0.8512 -0.4919
vn -0.5222 0.6918 -0.4988
vn -0.3170 0.9372 0.1456
vn -0.0454 0.9884 -0.1449
vn -0.1537 0.9401 -0.3043
vn -0.5092 0.8456 -0.1599
vn 0.0031 0.9419 0.3359
vn 0.1217 0.9918 -0.0378
vn -0.0454 0.9884 -0.1449
vn -0.3170 0.9372 0.1456
vn 0.3653 0.8585 0.3600
vn 0.3233 0.9463 -0.0022
vn 0.1217 0.9918 -0.0378
vn 0.0031 0.9419 0.3359
vn 0.6725 0.7093 0.2114
vn 0.5114 0.8558 -0.0777
vn 0.3233 0.9463 -0.0022
vn 0.3653 0.8585 0.3600
vn 0.8931 -0.1356 0.4289
vn 0.9168 -0.1724 0.3602
vn 0.6890 0.0279 0.7242
vn 0.6701 -0.0650 0.7394
vn 0.8861 -0.4074 -0.2211
vn 0.9013 -0.4044 -0.1554
vn 0.9168 -0.1724 0.3602
vn 0.8931 -0.1356 0.4289
vn 0.5781 -0.6276 -0.5215
vn 0.6246 -0.5490 -0.5554
vn 0.9013 -0.4044 -0.1554
vn 0.8861 -0.4074 -0.2211
vn 0.3023 -0.5444 -0.7825
vn 0.2270 -0.5366 -0.8128
vn 0.6246 -0.5490 -0.5554
vn 0.5781 -0.6276 -0.5215
vn -0.3768 -0.3686 -0.8498
vn -0.3225 -0.4088 -0.8538
vn 0.2270 -0.5366 -0.8128
vn 0.3023 -0.5444 -0.7825
vn -0.7649 -0.2982 -0.5709
vn -0.7412 -0.2276 -0.6316
vn -0.3225 -0.4088 -0.8538
vn -0.3768 -0.3686 -0.8498
vn -0.9344 -0.0223 -0.3556
vn -0.9575 0.0164 -0.2878
vn -0.7412 -0.2276 -0.6316
vn -0.7649 -0.2982 -0.5709
vn -0.9160 0.2930 0.2742
vn -0.9407 0.2534 0.2255
vn -0.9575 0.0164 -0.2878
vn -0.9344 -0.0223 -0.3556
vn -0.6736 0.2620 0.6911
vn -0.6768 0.3493 0.6481
vn -0.9407 0.2534 0.2255
vn -0.9160 0.2930 0.2742
vn -0.3439 0.3849 0.8565
vn -0.2677 0.3805 0.8852
vn -0.6768 0.3493 0.6481
vn -0.6736 0.2620 0.6911
vn 0.3472 0.2553 0.9024
vn 0.2831 0.2578 0.9238
vn -0.2677 0.3805 0.8852
vn -0.3439 0.3849 0.8565
vn 0.6701 -0.0650 0.7394
vn 0.6890 0.0279 0.7242
vn 0.2831 0.2578 0.9238
vn 0.3472 0.2553 0.9024
vn 0.2609 -0.4522 -0.8529
vn -0.3000 -0.3464 -0.8888
vn -0.3768 -0.3686 -0.8498
vn 0.3023 -0.5444 -0.7825
vn -0.3000 -0.3464 -0.8888
vn -0.7740 -0.3558 -0.5237
vn -0.7649 -0.2982 -0.5709
vn -0.3768 -0.3686 -0.8498
vn -0.7740 -0.3558 -0.5237
vn -0.9353 0.0992 -0.3396
vn -0.9344 -0.0223 -0.3556
vn -0.7649 -0.2982 -0.5709
vn -0.9353 0.0992 -0.3396
vn -0.9293 0.3172 0.1891
vn -0.9160 0.2930 0.2742
vn -0.9344 -0.0223 -0.3556
vn -0.9293 0.3172 0.1891
vn -0.6721 0.1899 0.7157
vn -0.6736 0.2620 0.6911
vn -0.9160 0.2930 0.2742
vn -0.6721 0.1899 0.7157
vn -0.2561 0.4704 0.8445
vn -0.3439 0.3849 0.8565
vn -0.6736 0.2620 0.6911
vn -0.2561 0.4704 0.8445
vn 0.2950 0.3271 0.8978
vn 0.3472 0.2553 0.9024
vn -0.3439 0.3849 0.8565
vn 0.2950 0.3271 0.8978
vn 0.6459 -0.1349 0.7514
vn 0.6701 -0.0650 0.7394
vn 0.3472 0.2553 0.9024
vn 0.6459 -0.1349 0.7514
vn 0.9404 -0.0797 0.3306
vn 0.8931 -0.1356 0.4289
vn 0.6701 -0.0650 0.7394
vn 0.9404 -0.0797 0.3306
vn 0.9239 -0.3378 -0.1796
vn 0.8861 -0.4074 -0.2211
vn 0.8931 -0.1356 0.4289
vn 0.9239 -0.3378 -0.1796
vn 0.5428 -0.6850 -0.4860
vn 0.5781 -0.6276 -0.5215
vn 0.8861 -0.4074 -0.2211
vn 0.5428 -0.6850 -0.4860
vn 0.2609 -0.4522 -0.8529
vn 0.3023 -0.5444 -0.7825
vn 0.5781 -0.6276 -0.5215
vn -0.2305 -0.8827 0.4096
vn -0.2305 -0.8827 0.4096
vn -0.2305 -0.8827 0.4096
vn -0.2305 -0.8827 0.4096
vn -0.2305 -0.8827 0.4096
vn -0.2305 -0.8827 0.4096
vn -0.2305 -0.8827 0.4096
vn -0.2305 -0.8827 0.4096
vn -0.2305 -0.8827 0.4096
vn -0.2305 -0.8827 0.4096
vn -0.2305 -0.8827 0.4096
vn -0.2305 -0.8827 0.4096
vn -0.2305 -0.8827 0.4096
vn -0.2305 -0.8827 0.4096
vn -0.2305 -0.8827 0.4096
vn -0.2305 -0.8827 0.4096
vn -0.2305 -0.8827 0.4096
vn -0.2305 -0.8827 0.4096
vn -0.2305 -0.8827 0.4096
vn -0.2305 -0.8827 0.4096
vn -0.2305 -0.8827 0.4096
vn -0.2305 -0.8827 0.4096
vn -0.2305 -0.8827 0.4096
vn -0.2305 -0.8827 0.4096
vn -0.2305 -0.8827 0.4096
vn -0.2305 -0.8827 0.4096
vn -0.2305 -0.8827 0.4096
vn -0.2305 -0.8827 0.4096
vn -0.2305 -0.8827 0.4096
vn -0.2305 -0.8827 0.4096
vn -0.2305 -0.8827 0.4096
vn -0.2305 -0.8827 0.4096
vn 0.2189 -0.7522 -0.6215
vn 0.3401 -0.4674 -0.8160
vn 0.6631 -0.4505 -0.5978
vn 0.5503 -0.7160 -0.4296
vn -0.7020 0.1348 0.6993
vn -0.6631 0.4505 0.5978
vn -0.8852 0.3650 0.2885
vn -0.9157 0.0186 0.4014
vn 0.7738 -0.3706 0.5138
vn 0.9117 -0.0488 0.4079
vn 0.7122 0.1338 0.6892
vn 0.5964 -0.1646 0.7856
vn -0.4448 -0.5995 -0.6654
vn -0.5011 -0.8069 -0.3128
vn -0.7009 -0.6541 -0.2845
vn -0.7483 -0.4173 -0.5156
vn -0.4448 -0.5995 -0.6654
vn -0.4042 -0.2960 -0.8655
vn 0.3401 -0.4674 -0.8160
vn 0.2189 -0.7522 -0.6215
vn 0.7738 -0.3706 0.5138
vn 0.4679 -0.6249 0.6250
vn 0.4455 -0.8948 0.0297
vn 0.7502 -0.6524 -0.1073
vn 0.2792 -0.0345 0.9596
vn 0.4042 0.2960 0.8655
vn -0.3401 0.4674 0.8160
vn -0.3844 0.1185 0.9155
vn -0.9393 -0.2634 -0.2196
vn -0.7905 -0.6103 -0.0519
vn -0.7679 -0.3397 0.5431
vn -0.9157 0.0186 0.4014
vn 0.7502 -0.6524 -0.1073
vn 0.4455 -0.8948 0.0297
vn 0.3761 -0.9016 -0.2136
vn 0.5503 -0.7160 -0.4296
vn -0.3844 0.1185 0.9155
vn -0.3401 0.4674 0.8160
vn -0.6631 0.4505 0.5978
vn -0.7020 0.1348 0.6993
vn 0.2792 -0.0345 0.9596
vn 0.1785 -0.4282 0.8859
vn 0.4139 -0.4447 0.7943
vn 0.5964 -0.1646 0.7856
vn -0.9393 -0.2634 -0.2196
vn -0.9117 0.0488 -0.4079
vn -0.7122 -0.1338 -0.6892
vn -0.7483 -0.4173 -0.5156
# 448 vertex normals

vt 0.2044 0.0016 0.0000
vt 0.2596 0.0057 0.0000
vt 0.2057 0.0034 0.0000
vt 0.1815 0.0034 0.0000
vt 0.2575 0.0036 0.0000
vt 0.0565 0.0016 0.0000
vt 0.0800 0.0016 0.0000
vt 0.0800 0.0034 0.0000
vt 0.0052 0.0034 0.0000
vt 0.1542 0.0016 0.0000
vt 0.0027 0.0034 0.0000
vt 0.1548 0.0034 0.0000
vt 0.0051 0.9964 0.0000
vt 0.2094 0.0518 0.0000
vt 0.2176 0.9076 0.0000
vt 0.2115 0.0539 0.0000
vt 0.1066 0.0034 0.0000
vt 0.0293 0.0034 0.0000
vt 0.1307 0.0034 0.0000
vt 0.1042 0.0034 0.0000
vt 0.2345 0.0539 0.0000
vt 0.1307 0.0016 0.0000
vt 0.0293 0.9964 0.0000
vt 0.2115 0.0287 0.0000
vt 0.1815 0.0016 0.0000
vt 0.2345 0.0287 0.0000
vt 0.2345 0.0036 0.0000
vt 0.0559 0.0034 0.0000
vt 0.2575 0.0287 0.0000
vt 0.2115 0.0036 0.0000
vt 0.1572 0.9964 0.0000
vt 0.0557 0.9964 0.0000
vt 0.2177 0.7526 0.0000
vt 0.2394 0.7503 0.0000
vt 0.2407 0.7772 0.0000
vt 0.2190 0.7821 0.0000
vt 0.2612 0.7485 0.0000
vt 0.2619 0.7737 0.0000
vt 0.2830 0.7490 0.0000
vt 0.2394 0.9054 0.0000
vt 0.2407 0.9323 0.0000
vt 0.2189 0.9371 0.0000
vt 0.2613 0.9037 0.0000
vt 0.2618 0.9289 0.0000
vt 0.2829 0.7726 0.0000
vt 0.3049 0.7488 0.0000
vt 0.3038 0.7739 0.0000
vt 0.3266 0.7507 0.0000
vt 0.3249 0.7777 0.0000
vt 0.3482 0.7534 0.0000
vt 0.3466 0.7828 0.0000
vt 0.2460 0.7975 0.0000
vt 0.2282 0.8061 0.0000
vt 0.2830 0.9042 0.0000
vt 0.2828 0.9279 0.0000
vt 0.3048 0.9040 0.0000
vt 0.3038 0.9292 0.0000
vt 0.3266 0.9061 0.0000
vt 0.2642 0.7925 0.0000
vt 0.2827 0.7910 0.0000
vt 0.3013 0.7927 0.0000
vt 0.3194 0.7979 0.0000
vt 0.3371 0.8067 0.0000
vt 0.2550 0.8150 0.0000
vt 0.2439 0.8242 0.0000
vt 0.2684 0.8099 0.0000
vt 0.3248 0.9330 0.0000
vt 0.3483 0.9088 0.0000
vt 0.3465 0.9382 0.0000
vt 0.2458 0.9526 0.0000
vt 0.2281 0.9611 0.0000
vt 0.1550 0.9964 0.0000
vt 0.1573 0.0034 0.0000
vt 0.1307 0.9964 0.0000
vt 0.1065 0.9964 0.0000
vt 0.2641 0.9477 0.0000
vt 0.1043 0.9964 0.0000
vt 0.2826 0.9462 0.0000
vt 0.1073 0.0016 0.0000
vt 0.0535 0.9964 0.0000
vt 0.0534 0.0034 0.0000
vt 0.0027 0.0017 0.0000
vt 0.0293 0.0016 0.0000
vt 0.0528 0.0016 0.0000
vt 0.3011 0.9480 0.0000
vt 0.3193 0.9532 0.0000
vt 0.2826 0.8084 0.0000
vt 0.2969 0.8101 0.0000
vt 0.3102 0.8153 0.0000
vt 0.3212 0.8246 0.0000
vt 0.2728 0.8228 0.0000
vt 0.2826 0.8216 0.0000
vt 0.3369 0.9621 0.0000
vt 0.2548 0.9702 0.0000
vt 0.2825 0.8381 0.0000
vt 0.2708 0.8370 0.0000
vt 0.2923 0.8229 0.0000
vt 0.2942 0.8371 0.0000
vt 0.2437 0.9794 0.0000
vt 0.2594 0.8337 0.0000
vt 0.2644 0.8267 0.0000
vt 0.3007 0.8268 0.0000
vt 0.3056 0.8339 0.0000
vt 0.2416 0.7176 0.0000
vt 0.2202 0.7155 0.0000
vt 0.2608 0.7169 0.0000
vt 0.2682 0.9651 0.0000
vt 0.2825 0.9636 0.0000
vt 0.2967 0.9654 0.0000
vt 0.3100 0.9706 0.0000
vt 0.3210 0.9800 0.0000
vt 0.2575 0.0539 0.0000
vt 0.2832 0.7145 0.0000
vt 0.3055 0.7172 0.0000
vt 0.3249 0.7180 0.0000
vt 0.3465 0.7162 0.0000
vt 0.3127 0.6964 0.0000
vt 0.3173 0.6969 0.0000
vt 0.3457 0.6967 0.0000
vt 0.2209 0.6962 0.0000
vt 0.2726 0.9780 0.0000
vt 0.2824 0.9768 0.0000
vt 0.2823 0.9934 0.0000
vt 0.2706 0.9923 0.0000
vt 0.2921 0.9781 0.0000
vt 0.2492 0.6965 0.0000
vt 0.2939 0.9924 0.0000
vt 0.2538 0.6961 0.0000
vt 0.2833 0.6956 0.0000
vt 0.3005 0.9822 0.0000
vt 0.3054 0.9892 0.0000
vt 0.2592 0.9889 0.0000
vt 0.2642 0.9819 0.0000
vt 0.2416 0.8727 0.0000
vt 0.2202 0.8706 0.0000
vt 0.2609 0.8720 0.0000
vt 0.2833 0.8696 0.0000
vt 0.3057 0.8724 0.0000
vt 0.3251 0.8734 0.0000
vt 0.3466 0.8716 0.0000
vt 0.2209 0.8513 0.0000
vt 0.2492 0.8516 0.0000
vt 0.2539 0.8512 0.0000
vt 0.2835 0.8507 0.0000
vt 0.2094 0.0287 0.0000
vt 0.2094 0.0057 0.0000
vt 0.2596 0.0287 0.0000
vt 0.1815 0.9964 0.0000
vt 0.2596 0.0518 0.0000
vt 0.0058 0.0016 0.0000
vt 0.3130 0.8517 0.0000
vt 0.1035 0.0016 0.0000
vt 0.3176 0.8522 0.0000
vt 0.3459 0.8521 0.0000
vt 0.0800 0.9964 0.0000
vt 0.0029 0.9964 0.0000
vt 0.2057 0.9964 0.0000
vt 0.1579 0.0016 0.0000
# 158 texture coords

g Match
usemtl Match
s 2
f 1/1/1 115/3/2 123/4/3 18/25/4 
f 13/6/5 19/7/6 124/8/7 118/28/8 
f 10/10/9 120/12/10 125/19/11 21/22/12 
f 3/13/13 119/9/14 126/18/15 24/23/16 
f 1/82/17 9/150/18 119/9/19 115/11/20 
f 4/31/21 12/72/22 120/12/23 116/73/24 
f 14/152/25 6/79/26 121/17/27 117/20/28 
f 15/32/29 7/80/30 122/81/31 118/28/32 
f 17/148/33 4/31/34 116/73/35 123/4/36 
f 19/7/37 14/152/38 117/20/39 124/8/40 
f 23/74/41 8/75/42 121/17/43 125/19/44 
f 22/83/45 5/84/46 122/81/47 126/18/48 
s 1
f 25/33/49 26/34/50 38/35/51 37/36/52 
f 26/34/53 27/37/54 39/38/55 38/35/56 
f 27/37/57 28/39/58 40/45/59 39/38/60 
f 28/39/61 29/46/62 41/47/63 40/45/64 
f 29/46/65 30/48/66 42/49/67 41/47/68 
f 30/48/69 31/50/70 43/51/71 42/49/72 
f 31/15/73 32/40/74 44/41/75 43/42/76 
f 32/40/77 33/43/78 45/44/79 44/41/80 
f 33/43/81 34/54/82 46/55/83 45/44/84 
f 34/54/85 35/56/86 47/57/87 46/55/88 
f 35/56/89 36/58/90 48/67/91 47/57/92 
f 36/58/93 25/68/94 37/69/95 48/67/96 
f 37/36/97 38/35/98 50/52/99 49/53/100 
f 38/35/101 39/38/102 51/59/103 50/52/104 
f 39/38/105 40/45/106 52/60/107 51/59/108 
f 40/45/109 41/47/110 53/61/111 52/60/112 
f 41/47/113 42/49/114 54/62/115 53/61/116 
f 42/49/117 43/51/118 55/63/119 54/62/120 
f 43/42/121 44/41/122 56/70/123 55/71/124 
f 44/41/125 45/44/126 57/76/127 56/70/128 
f 45/44/129 46/55/130 58/78/131 57/76/132 
f 46/55/133 47/57/134 59/85/135 58/78/136 
f 47/57/137 48/67/138 60/86/139 59/85/140 
f 48/67/141 37/69/142 49/93/143 60/86/144 
f 49/53/145 50/52/146 77/64/147 76/65/148 
f 50/52/149 51/59/150 78/66/151 77/64/152 
f 51/59/153 52/60/154 79/87/155 78/66/156 
f 52/60/157 53/61/158 80/88/159 79/87/160 
f 53/61/161 54/62/162 81/89/163 80/88/164 
f 54/62/165 55/63/166 82/90/167 81/89/168 
f 55/71/169 56/70/170 83/94/171 82/99/172 
f 56/70/173 57/76/174 84/107/175 83/94/176 
f 57/76/177 58/78/178 85/108/179 84/107/180 
f 58/78/181 59/85/182 86/109/183 85/108/184 
f 59/85/185 60/86/186 87/110/187 86/109/188 
f 60/86/189 49/93/190 76/111/191 87/110/192 
f 74/121/193 75/122/194 66/123/195 67/124/196 
f 62/91/197 70/92/198 66/95/199 68/96/200 
f 66/95/201 70/92/202 71/97/203 67/98/204 
f 66/123/205 75/122/206 64/125/207 68/127/208 
f 68/127/209 64/125/210 65/130/211 69/131/212 
f 69/100/213 61/101/214 62/91/215 68/96/216 
f 72/102/217 63/103/218 67/98/219 71/97/220 
f 74/121/221 67/124/222 63/132/223 73/133/224 
f 77/64/225 61/101/226 69/100/227 76/65/228 
f 78/66/229 62/91/230 61/101/231 77/64/232 
f 79/87/233 70/92/234 62/91/235 78/66/236 
f 80/88/237 71/97/238 70/92/239 79/87/240 
f 81/89/241 72/102/242 71/97/243 80/88/244 
f 82/90/245 63/103/246 72/102/247 81/89/248 
f 83/94/249 73/133/250 63/132/251 82/99/252 
f 84/107/253 74/121/254 73/133/255 83/94/256 
f 85/108/257 75/122/258 74/121/259 84/107/260 
f 86/109/261 64/125/262 75/122/263 85/108/264 
f 87/110/265 65/130/266 64/125/267 86/109/268 
f 76/111/269 69/131/270 65/130/271 87/110/272 
f 88/104/273 26/34/274 25/33/275 89/105/276 
f 90/106/277 27/37/278 26/34/279 88/104/280 
f 91/113/281 28/39/282 27/37/283 90/106/284 
f 92/114/285 29/46/286 28/39/287 91/113/288 
f 93/115/289 30/48/290 29/46/291 92/114/292 
f 94/116/293 31/50/294 30/48/295 93/115/296 
f 95/134/297 32/40/298 31/15/299 94/135/300 
f 96/136/301 33/43/302 32/40/303 95/134/304 
f 97/137/305 34/54/306 33/43/307 96/136/308 
f 98/138/309 35/56/310 34/54/311 97/137/312 
f 99/139/313 36/58/314 35/56/315 98/138/316 
f 89/140/317 25/68/318 36/58/319 99/139/320 
f 104/117/321 100/118/322 93/115/323 92/114/324 
f 100/118/325 111/119/326 94/116/327 93/115/328 
f 111/141/329 102/142/330 95/134/331 94/135/332 
f 102/142/333 106/143/334 96/136/335 95/134/336 
f 106/143/337 109/144/338 97/137/339 96/136/340 
f 109/144/341 107/151/342 98/138/343 97/137/344 
f 107/151/345 103/153/346 99/139/347 98/138/348 
f 103/153/349 110/154/350 89/140/351 99/139/352 
f 110/120/353 105/126/354 88/104/355 89/105/356 
f 105/126/357 101/128/358 90/106/359 88/104/360 
f 101/128/361 108/129/362 91/113/363 90/106/364 
f 108/129/365 104/117/366 92/114/367 91/113/368 
s 4
f 21/21/369 6/16/370 112/24/371 113/26/372 
f 22/27/373 9/5/374 114/29/375 113/26/376 
f 112/24/377 5/30/378 22/27/379 113/26/380 
f 114/29/381 10/112/382 21/21/383 113/26/384 
f 5/30/385 112/24/386 19/145/387 13/146/388 
f 112/24/389 6/16/390 14/14/391 19/145/392 
f 1/2/393 18/147/394 114/29/395 9/5/396 
f 18/147/397 2/149/398 10/112/399 114/29/400 
s 2
f 115/3/401 11/157/402 17/148/403 123/4/404 
f 124/8/405 20/155/406 15/32/407 118/28/408 
f 120/12/409 12/72/410 23/74/411 125/19/412 
f 119/9/413 9/150/414 22/83/415 126/18/416 
f 119/9/417 3/13/418 11/156/419 115/11/420 
f 120/12/421 10/10/422 2/158/423 116/73/424 
f 121/17/425 8/75/426 16/77/427 117/20/428 
f 122/81/429 5/84/430 13/6/431 118/28/432 
f 116/73/433 2/158/434 18/25/435 123/4/436 
f 117/20/437 16/77/438 20/155/439 124/8/440 
f 121/17/441 6/79/442 21/22/443 125/19/444 
f 122/81/445 7/80/446 24/23/447 126/18/448 
# 112 polygons

